<svg width="261" height="66" viewBox="0 0 261 66" fill="none" xmlns="http://www.w3.org/2000/svg" xmlns:xlink="http://www.w3.org/1999/xlink">
<symbol id="logo-symbol-wordmark"><path fill="#750787" d="M15.8 64c6.3 2.2 13 2.5 19.5 1.1.8-.2 1.4-.3 2.1-.6 1.6-.5 3.4-1.1 4.8-2.1V57H42c-4.2 1-8.4 1.5-12.7 1.5-5.6 0-8-2-9.2-3.7l-7.6 7.6c1.2.8 2.2 1.2 3.3 1.6z"/><path fill="#004dff" d="M24.5 50.5c2.3.3 4.5.5 6.8.6h3c4.3-.1 8.7-.3 12.8-1.2.1 0 .3 0 .3-.1 3.9-.8 7.7-2.5 10.2-5.9l-34.1-2.1 1 8.7z"/><path fill="#008026" d="M31.2 43.9h26.4c1.8-2.3 3.1-5.4 3.3-9.5v-7.7L30.7 26l.5 17.9z"/><path fill="#ffed00" d="m27.3 32.9 33.6.1c0-1.3.1-2.8.1-3.1 0-.8.2-4.2.2-7.8l-1.3-6-42.6-2.3 10 19.1z"/><path fill="#ff8c00" d="M22.9 22h38.2c0-2.5-.1-5.3-.3-7.3-.2-1.3-.4-2.6-.9-3.7L11.3 7.4 22.9 22z"/><path fill="#e40303" d="M59.9 11C57.7 5.7 52.6 1.7 46.6.8 45.3.7 40.7 0 30 0h-.1c-10.7 0-13 .7-14.3.8-1.5.3-3 .7-4.4 1.3L10 3.4l6.6 7.6h43.3z"/><path d="M7.7 59.1c1.5 1.3 3.2 2.5 4.8 3.4l7.6-7.6s-.6-1-.7-1.4c-.4-1.3-.8-2.6-.8-3.9v-.2h.2c1.9.5 3.8.8 5.8 1.1l6.7-6.7 11-11L31.2 22l-11-11-8.9-8.9c-2 .7-3.7 1.8-5.2 3.2" fill="#000"/><path fill="#613915" d="m22.9 22-11-11-5.8-5.8C4.7 6.5 3.4 8 2.4 9.8L4 54.6c.1.1.2.3.2.3.9 1.5 2.2 2.9 3.5 4.2l4.2-4.2 11.1-11 11-11L22.9 22z"/><path fill="#74d7ee" d="M14.8 22 3.7 11 2.4 9.8 1.8 11c-.4 1-.8 2-1 3.1-.2.7-.3 1.3-.3 2L2 48.4c.2.8.3 1.6.5 2.3.3 1.3.8 2.7 1.5 3.9l10.7-10.7 11-11L14.8 22z"/><path fill="#ffafc8" d="M6.3 22 .5 16.1C.2 18 0 20 0 22v2l.8 17.3c.1.9.3 1.8.3 2.8.2 1.5.4 2.9.8 4.4L6.2 44l11-11L6.3 22z"/><path d="M0 23.9v1.2c.1 2.6.2 5.3.3 7.8.1 2.5.3 5.1.4 7.6 0 .3.1.4.1.7L9 32.9l-9-9z" fill="#fff"/><path fill="#ddd" d="M.7 33c-.1-2.6-.2-5.3-.3-7.8v-.8L.1 24v1.2c.1 2.6.2 5.3.3 7.8.1 2.5.3 5.1.4 7.6 0 .3.1.4.1.7l.3-.3v-.3C.9 38 .8 35.5.7 33z"/><path d="M12.3 18.5c0-2.1 1.7-3.8 3.7-3.8s3.7 1.7 3.7 3.8-1.7 3.8-3.7 3.8-3.7-1.7-3.7-3.8z" fill="#fff"/><path d="M66.7 21.8V39H60V22.3c0-3.5-1.4-5.3-4.3-5.3-3.2 0-4.8 2.1-4.8 6.3v9.1h-6.6v-9.1c0-4.2-1.6-6.3-4.8-6.3-2.9 0-4.3 1.8-4.3 5.3V39h-6.7V21.8c0-3.5.8-6.3 2.6-8.3 1.8-2.1 4.2-3.1 7.1-3.1 3.4 0 6 1.3 7.7 4l1.7 2.8 1.7-2.8c1.7-2.7 4.3-4 7.7-4 2.9 0 5.3 1.1 7.1 3.1 1.8 2 2.6 4.8 2.6 8.3zm22.9 8.5c1.4-1.5 2-3.3 2-5.6s-.7-4.1-2-5.5c-1.3-1.5-3-2.2-5-2.2s-3.7.8-5 2.2-2 3.3-2 5.5.7 4.1 2 5.6c1.3 1.4 3 2.2 5 2.2 2-.1 3.7-.7 5-2.2zm2-19.3h6.6v27.4h-6.6v-3.3c-2 2.7-4.8 4-8.3 4-3.6 0-6.3-1.3-8.8-4.2S71 28.8 71 24.7s1.3-7.5 3.6-10.3c2.4-2.8 5.3-4.3 8.8-4.3s6.3 1.3 8.3 4V11h-.1zm28.7 13.2c1.9 1.5 2.9 3.6 2.8 6.2 0 2.8-1 5-2.9 6.5-2 1.5-4.3 2.3-7.3 2.3-5.3 0-8.8-2.2-10.7-6.5l5.7-3.5c.8 2.3 2.4 3.6 5 3.6 2.3 0 3.5-.8 3.5-2.3 0-1.2-1.5-2.2-4.6-3-1.2-.3-2.2-.7-2.9-.9-1.1-.4-2-.9-2.8-1.6-1.9-1.5-2.8-3.5-2.8-6 0-2.7.9-4.8 2.8-6.3 1.9-1.6 4.2-2.3 6.9-2.3 4.3 0 7.6 1.9 9.7 5.8l-5.6 3.3c-.8-1.8-2.2-2.8-4.1-2.8-2 0-2.9.8-2.9 2.3 0 1.2 1.5 2.2 4.6 3 2.4.3 4.2 1.1 5.6 2.2zm20.9-6.4h-5.8v11.4c0 1.3.5 2.2 1.5 2.6.8.3 2.2.3 4.3.3v6.4c-4.4.6-7.6.1-9.5-1.3-1.9-1.4-2.8-4.1-2.8-7.8V17.8h-4.4V11h4.4V5.4l6.6-2.2v7.7h5.8v6.9h-.1zM162 30.1c1.3-1.4 2-3.3 2-5.4 0-2.2-.7-4-2-5.4-1.3-1.4-2.9-2.2-4.9-2.2s-3.6.8-4.9 2.2c-1.3 1.5-1.9 3.3-1.9 5.4 0 2.2.7 3.9 1.9 5.4 1.3 1.4 2.9 2.2 4.9 2.2s3.6-.7 4.9-2.2zM147.6 35c-2.6-2.8-3.8-6.2-3.8-10.3 0-4.1 1.3-7.5 3.8-10.3 2.6-2.8 5.8-4.3 9.6-4.3s7 1.4 9.6 4.3 3.9 6.3 3.9 10.3-1.3 7.5-3.9 10.3c-2.6 2.8-5.8 4.2-9.6 4.2-3.9 0-7-1.3-9.6-4.2zm44.9-4.7c1.3-1.5 2-3.3 2-5.6s-.7-4.1-2-5.5c-1.3-1.5-3-2.2-5-2.2s-3.8.8-5.1 2.2c-1.3 1.4-2 3.3-2 5.5s.7 4.1 2 5.6c1.4 1.4 3.1 2.2 5.1 2.2 2-.1 3.7-.8 5-2.2zm2-30.3h6.6v38.4h-6.6v-3.3c-1.9 2.7-4.7 4-8.3 4s-6.3-1.3-8.8-4.2c-2.4-2.8-3.6-6.3-3.6-10.3s1.3-7.5 3.6-10.3c2.4-2.8 5.4-4.3 8.8-4.3s6.3 1.3 8.3 4V0zm29.6 30.1c1.3-1.4 2-3.3 2-5.4s-.7-4-2-5.4c-1.3-1.4-2.9-2.2-4.9-2.2-2 0-3.6.8-4.9 2.2-1.3 1.5-1.9 3.3-1.9 5.4 0 2.2.7 3.9 1.9 5.4 1.3 1.4 2.9 2.2 4.9 2.2 1.9 0 3.5-.8 4.9-2.2zM209.6 35c-2.6-2.8-3.8-6.2-3.8-10.3 0-4.1 1.3-7.5 3.8-10.3 2.6-2.8 5.8-4.3 9.6-4.3s7 1.4 9.6 4.3 3.9 6.3 3.9 10.3-1.3 7.5-3.9 10.3c-2.6 2.8-5.8 4.2-9.6 4.2s-7-1.4-9.6-4.2zM261 21.5v16.8h-6.6V22.4c0-1.8-.4-3.2-1.4-4.3-.8-.9-2.1-1.4-3.7-1.4-3.7 0-5.6 2.3-5.6 6.8v14.8h-6.5V10.9h6.6V14c1.6-2.6 4.1-3.8 7.6-3.8 2.8 0 5.1 1 6.8 3 1.9 2.1 2.8 4.8 2.8 8.3" fill="currentColor"/><path d="M60 38.9V22.3c0-3.5-1.4-5.3-4.3-5.3-3.2 0-4.8 2.1-4.8 6.3v9.1h-6.6v-9c0-4.2-1.6-6.3-4.8-6.3-2.9 0-4.3 1.8-4.3 5.3V39h-6.7V21.8c0-3.5.8-6.3 2.6-8.3 1.8-2.1 4.2-3.1 7.1-3.1 3.4 0 6 1.3 7.7 4l1.7 2.8 1.7-2.8c1.7-2.7 4.3-4 7.7-4 1 0 2.2.3 3 .4-.1-.2-.2-.3-.2-.5-.1-.2-.2-.3-.2-.5-.8-.2-1.8-.3-2.5-.3-3.7 0-6.5 1.5-8.4 4.4l-.9 1.6L47 14c-2.1-3-5-4.5-8.7-4.5-3.2 0-5.8 1.2-7.8 3.4-1.8 2.3-2.8 5.2-2.8 8.9v17.9H36V22.3c0-4 2-4.4 3.5-4.4 1.7 0 4 .6 4 5.4v9.9h8.3v-9.8c0-4.9 2.3-5.4 4-5.4 1.7 0 3.5.5 3.5 4.4v17.5h.6c0-.4 0-.6.1-1z" fill="#fff"/></symbol><use xlink:href="#logo-symbol-wordmark"/>
</svg>
