<?xml version="1.0" encoding="utf-8"?>
<!-- Generator: Adobe Illustrator 27.5.0, SVG Export Plug-In . SVG Version: 6.00 Build 0)  -->
<svg version="1.1" id="Layer_1" xmlns="http://www.w3.org/2000/svg" xmlns:xlink="http://www.w3.org/1999/xlink" x="0px" y="0px"
	 viewBox="0 0 314 80" style="enable-background:new 0 0 314 80;" xml:space="preserve">
<style type="text/css">
	.st0{fill:#750787;}
	.st1{fill:#004DFF;}
	.st2{fill:#008026;}
	.st3{fill:#FFED00;}
	.st4{fill:#FF8C00;}
	.st5{fill:#E40303;}
	.st6{fill:#FFFFFF;}
	.st7{fill:#FFAFC8;}
	.st8{fill:#74D7EE;}
	.st9{fill:#613915;}
	.st10{fill:#DDDDDD;}
</style>
<path class="st0" d="M19.4,77c7.5,2.6,15.6,3,23.4,1.3c0.9-0.2,1.7-0.4,2.5-0.7c1.9-0.6,4.1-1.3,5.7-2.5c0,0,0,0,0-0.1
	c0,0,0,0,0-0.1v-6c0,0,0,0,0-0.1c0,0,0,0,0-0.1c0,0,0,0-0.1,0c0,0,0,0-0.1,0c-5,1.2-10.1,1.8-15.2,1.8c-6.7,0-9.6-2.4-11-4.4
	l-9.1,9.1C16.9,76,18.1,76.5,19.4,77z"/>
<path class="st1" d="M30,61c2.7,0.3,5.3,0.5,8,0.5c1.2,0,2.4,0,3.6,0c5.1-0.1,10.4-0.4,15.4-1.4c0.1,0,0.3,0,0.4-0.1
	c4.7-0.9,9.2-3,12.2-7.1H38L30,61z"/>
<path class="st2" d="M38,52.9h31.6c2.1-2.8,3.5-6.5,3.8-11.4c0-0.2,0-0.9,0-1.8H51.2L38,52.9z"/>
<path class="st3" d="M51.2,39.8h22.3c0-1.5,0.1-3.4,0.1-3.7c0-1,0.2-5,0.2-9.4H38L51.2,39.8z"/>
<path class="st4" d="M38,26.6h35.7c0-3,0-6.3-0.3-8.8l0,0c-0.2-1.5-0.6-3-1.2-4.3H24.8L38,26.6z"/>
<path class="st5" d="M72.3,13.4C69.7,7,63.5,2.3,56.3,1.2c-1.5-0.2-7-1-19.8-1h-0.1c-12.8,0-15.6,0.8-17.1,1
	c-1.8,0.3-3.6,0.8-5.3,1.5l10.7,10.7H72.3z"/>
<path class="st6" d="M0.5,28.9c0,0.5,0,0.9,0,1.4c0.1,3.1,0.2,6.3,0.3,9.4c0.1,3,0.3,6.1,0.5,9.1c0,0.3,0.1,0.5,0.1,0.8l9.9-9.9
	L0.5,28.9z"/>
<path class="st7" d="M8,26.6L1,19.5c-0.3,2.3-0.5,4.7-0.5,7.1c0,0.8,0,1.6,0,2.4l10.9,10.8l-9.9,9.9c0.1,1.1,0.3,2.2,0.4,3.3
	c0.2,1.8,0.5,3.5,0.9,5.3L8,52.9l13.2-13.2L8,26.6z"/>
<path class="st8" d="M18.2,26.6L4.9,13.4l-1.5-1.5c-0.3,0.5-0.5,1-0.8,1.5c-0.5,1.2-1,2.4-1.2,3.7c-0.2,0.8-0.3,1.6-0.4,2.4L8,26.6
	l13.2,13.2L8,52.9l-5.2,5.3C3,59.1,3.2,60.1,3.4,61c0.4,1.6,1.1,3.2,1.9,4.7l12.8-12.8l13.2-13.2L18.2,26.6z"/>
<path class="st9" d="M28,26.6L14.8,13.4l-7-7C6.1,8,4.6,9.8,3.4,11.9l1.5,1.5l13.2,13.2l13.2,13.2L18.2,52.9L5.3,65.7
	c0.1,0.1,0.2,0.3,0.2,0.4c1.1,1.8,2.6,3.5,4.2,5l5-5L28,52.9l13.2-13.2L28,26.6z"/>
<path d="M24.7,66.2L24.7,66.2L24.7,66.2C24.7,66.2,24.7,66.2,24.7,66.2z"/>
<path d="M38,26.6L24.8,13.4L14.1,2.7c-2.3,0.9-4.4,2.2-6.2,3.8l7,7L28,26.6l13.2,13.2L28,52.9L14.8,66.1l-5,5c1.8,1.6,3.8,3,5.8,4.1
	l9.1-9.1c0,0,0,0,0-0.1c-0.4-0.6-0.7-1.1-0.8-1.6c-0.5-1.5-0.9-3.1-1-4.7c0,0,0,0,0-0.1c0,0,0,0,0-0.1c0,0,0,0,0.1,0h0.1
	c2.3,0.6,4.6,1,6.9,1.3l8-8l13.2-13.2L38,26.6z"/>
<path class="st10" d="M1.3,39.8c-0.1-3.1-0.2-6.3-0.3-9.4c0-0.3,0-0.7,0-1l-0.4-0.4c0,0.5,0,0.9,0,1.4c0.1,3.1,0.2,6.3,0.3,9.4
	c0.1,3,0.3,6.1,0.5,9.1c0,0.3,0.1,0.5,0.1,0.8l0.4-0.4c0-0.1,0-0.3,0-0.4C1.6,45.8,1.4,42.8,1.3,39.8z"/>
<path class="st6" d="M15.3,22.4c0-2.5,2-4.5,4.4-4.5c2.4,0,4.4,2,4.4,4.5c0,2.5-2,4.5-4.4,4.5C17.3,26.9,15.3,24.9,15.3,22.4z"/>
<path d="M80.5,26.3v20.6h-8v-20c0-4.2-1.7-6.3-5.2-6.3c-3.8,0-5.8,2.5-5.8,7.5v10.9h-7.9V28.1c0-5-1.9-7.5-5.8-7.5
	c-3.5,0-5.2,2.1-5.2,6.3v20h-8V26.3c0-4.2,1-7.5,3.1-10c2.2-2.5,5-3.7,8.5-3.7c4.1,0,7.2,1.6,9.2,4.8l2,3.4l2-3.4
	c2-3.2,5.1-4.8,9.2-4.8c3.5,0,6.4,1.3,8.5,3.7C79.5,18.8,80.5,22.1,80.5,26.3L80.5,26.3z M108,36.5c1.7-1.8,2.4-4,2.4-6.7
	c0-2.7-0.8-4.9-2.4-6.6c-1.6-1.8-3.6-2.6-6-2.6c-2.4,0-4.4,0.9-6,2.6c-1.6,1.7-2.4,3.9-2.4,6.6c0,2.7,0.8,4.9,2.4,6.7
	c1.6,1.7,3.6,2.6,6,2.6C104.4,39.1,106.4,38.3,108,36.5z M110.4,13.4h7.9v32.9h-7.9v-3.9c-2.4,3.2-5.7,4.8-9.9,4.8
	c-4.3,0-7.6-1.6-10.5-5c-2.9-3.4-4.3-7.5-4.3-12.4s1.5-9,4.3-12.3c2.9-3.4,6.4-5.1,10.5-5.1c4.1,0,7.6,1.6,9.9,4.8V13.4L110.4,13.4z
	 M144.8,29.2c2.3,1.8,3.5,4.3,3.4,7.4c0,3.4-1.2,6-3.5,7.8c-2.4,1.8-5.2,2.7-8.7,2.7c-6.3,0-10.5-2.6-12.8-7.8l6.8-4.2
	c0.9,2.8,2.9,4.3,6,4.3c2.8,0,4.2-0.9,4.2-2.8c0-1.4-1.8-2.6-5.5-3.6c-1.4-0.4-2.6-0.8-3.5-1.1c-1.3-0.5-2.4-1.1-3.3-1.9
	c-2.3-1.8-3.4-4.2-3.4-7.2c0-3.2,1.1-5.8,3.3-7.6c2.3-1.9,5-2.8,8.3-2.8c5.2,0,9.1,2.3,11.6,7l-6.7,3.9c-1-2.2-2.6-3.4-4.9-3.4
	c-2.4,0-3.5,0.9-3.5,2.7c0,1.4,1.8,2.6,5.5,3.6C140.9,27,143.1,27.9,144.8,29.2L144.8,29.2L144.8,29.2z M169.8,21.5h-6.9v13.7
	c0,1.6,0.6,2.6,1.8,3.1c0.9,0.3,2.6,0.4,5.1,0.3v7.7c-5.3,0.7-9.1,0.1-11.4-1.6c-2.3-1.7-3.4-4.9-3.4-9.4V21.5h-5.3v-8.2h5.3V6.7
	l7.9-2.6v9.2h6.9L169.8,21.5L169.8,21.5L169.8,21.5z M194.8,36.3c1.6-1.7,2.4-3.9,2.4-6.5c0-2.6-0.8-4.8-2.4-6.5
	c-1.6-1.7-3.5-2.6-5.9-2.6c-2.4,0-4.3,0.9-5.9,2.6c-1.5,1.8-2.3,3.9-2.3,6.5c0,2.6,0.8,4.7,2.3,6.5c1.6,1.7,3.5,2.6,5.9,2.6
	C191.3,38.9,193.2,38.1,194.8,36.3z M177.5,42.2c-3.1-3.4-4.6-7.4-4.6-12.4c0-4.9,1.5-9,4.6-12.3c3.1-3.4,7-5.1,11.5-5.1
	s8.4,1.7,11.5,5.1c3.1,3.4,4.7,7.5,4.7,12.3c0,4.8-1.6,9-4.7,12.4c-3.1,3.4-6.9,5-11.5,5C184.4,47.2,180.6,45.6,177.5,42.2z
	 M231.4,36.5c1.6-1.8,2.4-4,2.4-6.7c0-2.7-0.8-4.9-2.4-6.6c-1.6-1.8-3.6-2.6-6-2.6c-2.4,0-4.5,0.9-6.1,2.6c-1.6,1.7-2.4,3.9-2.4,6.6
	c0,2.7,0.8,4.9,2.4,6.7c1.7,1.7,3.7,2.6,6.1,2.6C227.7,39.1,229.8,38.2,231.4,36.5z M233.7,0.2h7.9v46.1h-7.9v-3.9
	c-2.3,3.2-5.6,4.8-9.9,4.8s-7.6-1.6-10.6-5c-2.9-3.4-4.3-7.5-4.3-12.4s1.5-9,4.3-12.3c2.9-3.4,6.5-5.1,10.6-5.1s7.6,1.6,9.9,4.8V0.2
	L233.7,0.2z M269.2,36.3c1.6-1.7,2.4-3.9,2.4-6.5s-0.8-4.8-2.4-6.5c-1.6-1.7-3.5-2.6-5.9-2.6c-2.4,0-4.3,0.9-5.9,2.6
	c-1.5,1.8-2.3,3.9-2.3,6.5c0,2.6,0.8,4.7,2.3,6.5c1.6,1.7,3.5,2.6,5.9,2.6C265.7,38.9,267.6,38,269.2,36.3z M251.9,42.2
	c-3.1-3.4-4.6-7.4-4.6-12.4c0-4.9,1.5-9,4.6-12.3c3.1-3.4,7-5.1,11.5-5.1c4.5,0,8.4,1.7,11.5,5.1c3.1,3.4,4.7,7.5,4.7,12.3
	c0,4.8-1.6,9-4.7,12.4c-3.1,3.4-6.9,5-11.5,5C258.8,47.2,255,45.5,251.9,42.2z M313.5,26v20.2h-7.9V27.1c0-2.2-0.5-3.8-1.7-5.1
	c-1-1.1-2.5-1.7-4.4-1.7c-4.4,0-6.7,2.7-6.7,8.2v17.8H285V13.3h7.9v3.7c1.9-3.1,4.9-4.6,9.1-4.6c3.3,0,6.1,1.2,8.2,3.6
	C312.4,18.5,313.5,21.8,313.5,26"/>
<g>
	<path class="st6" d="M73,47v-20c0-4.2-1.7-6.3-5.2-6.3c-3.8,0-5.8,2.5-5.8,7.5v10.9h-7.9V28.3c0-5-1.9-7.5-5.8-7.5
		c-3.5,0-5.2,2.1-5.2,6.3v20h-8V26.4c0-4.2,1-7.5,3.1-10c2.2-2.5,5-3.7,8.5-3.7c4.1,0,7.2,1.6,9.2,4.8l2,3.4l2-3.4
		c2-3.2,5.1-4.8,9.2-4.8c1.2,0,2.3,0.2,3.3,0.4c-0.2-0.4-0.4-0.8-0.6-1.2c-0.9-0.2-1.8-0.3-2.7-0.3c-4.4,0-7.8,1.8-10.1,5.3
		l-1.1,1.9L57,17c-2.2-3.5-5.6-5.3-10.1-5.3c-3.8,0-6.9,1.4-9.3,4.1c-2.2,2.7-3.4,6.2-3.4,10.7V48h10v-21c0-4.8,2.4-5.3,4.2-5.3
		c2,0,4.8,0.7,4.8,6.5v11.9h9.9V28.3c0-5.9,2.7-6.5,4.8-6.5c2,0,4.2,0.6,4.2,5.3v21h0.7C72.8,47.7,72.9,47.4,73,47L73,47z"/>
	<path d="M81,26.4c0-4.2-1-7.5-3.1-10c-1.4-1.6-3.2-2.7-5.2-3.3c-1-0.3-2.1-0.4-3.3-0.4c-4.1,0-7.2,1.6-9.2,4.8l-2,3.4l-2-3.4
		c-2-3.2-5.1-4.8-9.2-4.8c-3.5,0-6.4,1.3-8.5,3.7c-2.1,2.5-3.1,5.8-3.1,10V47h8v-20c0-4.2,1.7-6.3,5.2-6.3c3.9,0,5.8,2.5,5.8,7.5
		v10.9h7.9V28.3c0-5,1.9-7.5,5.8-7.5c3.5,0,5.2,2.1,5.2,6.3v20h0h8L81,26.4L81,26.4z"/>
</g>
</svg>
